<?xml version="1.0" encoding="UTF-8"?>
<svg width="19px" height="15px" viewBox="0 0 19 15" version="1.1" xmlns="http://www.w3.org/2000/svg" xmlns:xlink="http://www.w3.org/1999/xlink">
    <!-- Generator: Sketch 49.3 (51167) - http://www.bohemiancoding.com/sketch -->
    <title>Group 2</title>
    <desc>Created with Sketch.</desc>
    <defs></defs>
    <g id="Page-1" stroke="none" stroke-width="1" fill="none" fill-rule="evenodd">
        <g id="nowplaying" transform="translate(-230.000000, -581.000000)" fill="#4E4E4E" fill-rule="nonzero">
            <g id="Group-2" transform="translate(230.000000, 581.000000)">
                <g id="noun_72018">
                    <path d="M1.41830632,0.243361438 C0.634997362,-0.302521961 0,0.101086958 0,1.14257345 L0,13.8575704 C0,14.9000749 0.636098713,15.3018983 1.41830632,14.7567825 L10.4129312,8.48848128 C11.1962402,7.94259787 11.1951388,7.0567785 10.4129312,6.51166262 L1.41830632,0.243361438 Z" id="Shape"></path>
                </g>
                <g id="noun_72018" transform="translate(8.000000, 0.000000)">
                    <path d="M1.41830632,0.243361438 C0.634997362,-0.302521961 0,0.101086958 0,1.14257345 L0,13.8575704 C0,14.9000749 0.636098713,15.3018983 1.41830632,14.7567825 L10.4129312,8.48848128 C11.1962402,7.94259787 11.1951388,7.0567785 10.4129312,6.51166262 L1.41830632,0.243361438 Z" id="Shape"></path>
                </g>
            </g>
        </g>
    </g>
</svg>